
            <svg>
                    <path fill-rule="evenodd" clip-rule="evenodd"
                          d="M33.2299 5.89062H42.7108C45.3055 5.89062 47.4072 7.99231 47.4072 10.587V37.4108C47.4072 40.0105 45.3055 42.1122 42.7108 42.1122H15.887C13.9297 42.1122 12.254 40.9186 11.5504 39.2165C12.5989 39.1158 13.5531 38.5817 14.1898 37.7258C15.099 36.5156 16.1554 35.6039 17.3256 34.988C21.735 32.6895 24.4787 28.1715 24.4787 23.1973C24.4787 15.8908 18.5428 9.94088 11.239 9.91029C11.5668 7.6365 13.5222 5.89062 15.8871 5.89062H25.3674V9.389C25.3674 10.0695 25.9243 10.6212 26.5996 10.6212H31.9977C32.6782 10.6212 33.2299 10.0695 33.2299 9.389V5.89062ZM29.9879 34.5665V37.4875C29.9879 37.896 30.3193 38.2274 30.7278 38.2274H41.6447C42.0532 38.2274 42.3846 37.896 42.3846 37.4875V34.5665C42.3846 34.1581 42.0533 33.8267 41.6447 33.8267H30.7278C30.3194 33.8267 29.9879 34.1581 29.9879 34.5665Z"
                          fill="#9D7B6D"/>
                    <path fill-rule="evenodd" clip-rule="evenodd"
                          d="M10.3444 36.119C9.23015 34.6132 7.78452 33.401 6.14334 32.5128C2.49955 30.5402 0.150553 26.4974 0.662428 21.9575C1.21199 17.1243 5.12708 13.2169 9.96037 12.6747C16.3672 11.9596 21.7803 16.9586 21.7803 23.1997C21.7803 27.2953 19.469 30.8338 16.0737 32.603C14.4775 33.4387 13.1149 34.6659 12.0307 36.1114L12.0271 36.1164C11.6086 36.6806 10.7646 36.6819 10.3444 36.119ZM11.1873 28.1721C8.44621 28.1721 6.21478 25.947 6.21478 23.1996C6.21478 20.4586 8.4463 18.227 11.1873 18.227C13.9349 18.227 16.16 20.4586 16.16 23.1996C16.16 25.9471 13.9349 28.1721 11.1873 28.1721Z"
                          fill="#EA0C0C"/>
                    <path
                        d="M54.6 20.9785C54.44 20.9785 54.296 20.9225 54.168 20.8105C54.056 20.6825 54 20.5385 54 20.3785V4.80248C54 4.62648 54.056 4.48248 54.168 4.37048C54.28 4.24248 54.424 4.17848 54.6 4.17848H61.392C63.472 4.17848 65.104 4.65048 66.288 5.59448C67.472 6.53848 68.064 7.92248 68.064 9.74648C68.064 11.5705 67.472 12.9385 66.288 13.8505C65.104 14.7465 63.472 15.1945 61.392 15.1945H58.656V20.3785C58.656 20.5385 58.6 20.6825 58.488 20.8105C58.376 20.9225 58.232 20.9785 58.056 20.9785H54.6ZM61.272 11.7625C61.928 11.7625 62.44 11.5945 62.808 11.2585C63.192 10.9065 63.384 10.3945 63.384 9.72248C63.384 9.09848 63.208 8.59448 62.856 8.21048C62.52 7.82648 61.992 7.63448 61.272 7.63448H58.584V11.7625H61.272Z"
                        fill="#EA0C0C"/>
                    <path
                        d="M78.4491 21.2185C76.1771 21.2185 74.3851 20.6665 73.0731 19.5625C71.7611 18.4585 71.0651 16.8345 70.9851 14.6905C70.9691 14.2425 70.9611 13.5545 70.9611 12.6265C70.9611 11.6985 70.9691 11.0025 70.9851 10.5385C71.0491 8.42648 71.7451 6.80248 73.0731 5.66648C74.4171 4.51448 76.2091 3.93848 78.4491 3.93848C80.6731 3.93848 82.4491 4.51448 83.7771 5.66648C85.1211 6.80248 85.8251 8.42648 85.8891 10.5385C85.9211 11.4665 85.9371 12.1625 85.9371 12.6265C85.9371 13.1065 85.9211 13.7945 85.8891 14.6905C85.8091 16.8345 85.1131 18.4585 83.8011 19.5625C82.5051 20.6665 80.7211 21.2185 78.4491 21.2185ZM78.4491 17.6185C79.2811 17.6185 79.9451 17.3705 80.4411 16.8745C80.9371 16.3625 81.2011 15.5865 81.2331 14.5465C81.2651 13.6185 81.2811 12.9545 81.2811 12.5545C81.2811 12.1545 81.2651 11.5065 81.2331 10.6105C81.2011 9.57048 80.9371 8.80248 80.4411 8.30648C79.9451 7.79448 79.2811 7.53848 78.4491 7.53848C77.6011 7.53848 76.9291 7.79448 76.4331 8.30648C75.9371 8.80248 75.6731 9.57048 75.6411 10.6105C75.6251 11.0585 75.6171 11.7065 75.6171 12.5545C75.6171 13.4185 75.6251 14.0825 75.6411 14.5465C75.6731 15.5865 75.9371 16.3625 76.4331 16.8745C76.9291 17.3705 77.6011 17.6185 78.4491 17.6185Z"
                        fill="#EA0C0C"/>
                    <path
                        d="M91.3373 21.0505C91.1773 21.0505 91.0333 20.9945 90.9053 20.8825C90.7933 20.7545 90.7373 20.6105 90.7373 20.4505V4.85048C90.7373 4.67448 90.7933 4.53048 90.9053 4.41848C91.0333 4.30648 91.1773 4.25048 91.3373 4.25048H94.6973C94.8733 4.25048 95.0173 4.30648 95.1293 4.41848C95.2413 4.53048 95.2973 4.67448 95.2973 4.85048V17.2825H102.497C102.673 17.2825 102.817 17.3465 102.929 17.4745C103.057 17.5865 103.121 17.7305 103.121 17.9065V20.4505C103.121 20.6265 103.057 20.7705 102.929 20.8825C102.817 20.9945 102.673 21.0505 102.497 21.0505H91.3373Z"
                        fill="#2D2D2D"/>
                    <path
                        d="M105.392 21.0505C105.264 21.0505 105.144 21.0025 105.032 20.9065C104.936 20.7945 104.888 20.6745 104.888 20.5465C104.888 20.4505 104.896 20.3785 104.912 20.3305L110.504 4.94648C110.664 4.48248 110.984 4.25048 111.464 4.25048H115.208C115.688 4.25048 116.008 4.48248 116.168 4.94648L121.76 20.3305C121.776 20.3785 121.784 20.4505 121.784 20.5465C121.784 20.6745 121.728 20.7945 121.616 20.9065C121.52 21.0025 121.408 21.0505 121.28 21.0505H118.16C117.776 21.0505 117.504 20.8745 117.344 20.5225L116.48 18.1945H110.192L109.328 20.5225C109.168 20.8745 108.896 21.0505 108.512 21.0505H105.392ZM111.2 14.5945H115.472L113.336 8.47448L111.2 14.5945Z"
                        fill="#2D2D2D"/>
                    <path
                        d="M125.401 21.0505C125.241 21.0505 125.097 20.9945 124.969 20.8825C124.857 20.7545 124.801 20.6105 124.801 20.4505V4.87448C124.801 4.69848 124.857 4.55448 124.969 4.44248C125.081 4.31448 125.225 4.25048 125.401 4.25048H128.113C128.481 4.25048 128.753 4.40248 128.929 4.70648L134.593 13.6585V4.87448C134.593 4.69848 134.649 4.55448 134.761 4.44248C134.873 4.31448 135.017 4.25048 135.193 4.25048H138.241C138.417 4.25048 138.561 4.31448 138.673 4.44248C138.785 4.55448 138.841 4.69848 138.841 4.87448V20.4265C138.841 20.6025 138.785 20.7545 138.673 20.8825C138.561 20.9945 138.417 21.0505 138.241 21.0505H135.529C135.161 21.0505 134.889 20.8985 134.713 20.5945L129.073 12.0025V20.4505C129.073 20.6265 129.009 20.7705 128.881 20.8825C128.769 20.9945 128.625 21.0505 128.449 21.0505H125.401Z"
                        fill="#2D2D2D"/>
                    <path
                        d="M143.898 21.0505C143.738 21.0505 143.594 20.9945 143.466 20.8825C143.354 20.7545 143.298 20.6105 143.298 20.4505V4.87448C143.298 4.69848 143.354 4.55448 143.466 4.44248C143.578 4.31448 143.722 4.25048 143.898 4.25048H150.21C152.578 4.25048 154.418 4.81848 155.73 5.95448C157.042 7.07448 157.73 8.69048 157.794 10.8025C157.81 11.2665 157.818 11.8825 157.818 12.6505C157.818 13.4185 157.81 14.0265 157.794 14.4745C157.634 18.8585 155.146 21.0505 150.33 21.0505H143.898ZM150.21 17.4505C151.218 17.4505 151.962 17.2105 152.442 16.7305C152.922 16.2505 153.178 15.4825 153.21 14.4265C153.242 13.9625 153.258 13.3625 153.258 12.6265C153.258 11.8905 153.242 11.2985 153.21 10.8505C153.178 9.82648 152.898 9.07448 152.37 8.59448C151.858 8.09848 151.098 7.85048 150.09 7.85048H147.81V17.4505H150.21Z"
                        fill="#2D2D2D"/>
                    <path
                        d="M161.7 21.0505C161.54 21.0505 161.396 20.9945 161.268 20.8825C161.156 20.7545 161.1 20.6105 161.1 20.4505V18.6505C161.1 18.1705 161.3 17.7705 161.7 17.4505L163.932 15.2665C165.452 14.1145 166.596 13.2185 167.364 12.5785C168.148 11.9385 168.74 11.3625 169.14 10.8505C169.556 10.3225 169.764 9.82648 169.764 9.36248C169.764 8.17848 169.172 7.58648 167.988 7.58648C167.364 7.58648 166.884 7.77848 166.548 8.16248C166.212 8.53048 165.988 8.99448 165.876 9.55448C165.78 9.92248 165.508 10.1065 165.06 10.1065H161.892C161.748 10.1065 161.62 10.0585 161.508 9.96248C161.412 9.85048 161.364 9.73048 161.364 9.60248C161.396 8.54648 161.684 7.59448 162.228 6.74648C162.788 5.88248 163.564 5.20248 164.556 4.70648C165.548 4.19448 166.692 3.93848 167.988 3.93848C169.332 3.93848 170.492 4.15448 171.468 4.58648C172.444 5.01848 173.18 5.62648 173.676 6.41048C174.188 7.19448 174.444 8.10648 174.444 9.14648C174.444 10.2985 174.084 11.3385 173.364 12.2665C172.66 13.1945 171.58 14.2025 170.124 15.2905L168.132 17.2825H174.204C174.38 17.2825 174.524 17.3385 174.636 17.4505C174.748 17.5625 174.804 17.7065 174.804 17.8825V20.4505C174.804 20.6105 174.748 20.7545 174.636 20.8825C174.524 20.9945 174.38 21.0505 174.204 21.0505H161.7Z"
                        fill="#2D2D2D"/>
                    <path
                        d="M186.284 21.0505C186.124 21.0505 185.98 20.9945 185.852 20.8825C185.74 20.7545 185.684 20.6105 185.684 20.4505V17.8105H178.244C178.084 17.8105 177.94 17.7545 177.812 17.6425C177.7 17.5145 177.644 17.3705 177.644 17.2105V14.7865C177.644 14.5465 177.732 14.3065 177.908 14.0665L184.868 4.65848C185.092 4.38648 185.388 4.25048 185.756 4.25048H189.404C189.58 4.25048 189.724 4.30648 189.836 4.41848C189.964 4.53048 190.028 4.67448 190.028 4.85048V14.0905H192.14C192.332 14.0905 192.484 14.1545 192.596 14.2825C192.708 14.3945 192.764 14.5305 192.764 14.6905V17.2105C192.764 17.3705 192.708 17.5145 192.596 17.6425C192.484 17.7545 192.34 17.8105 192.164 17.8105H190.028V20.4505C190.028 20.6265 189.964 20.7705 189.836 20.8825C189.724 20.9945 189.58 21.0505 189.404 21.0505H186.284ZM181.916 14.2585H185.78V8.85848L181.916 14.2585Z"
                        fill="#2D2D2D"/>
                    <path
                        d="M196.427 21.0505C196.251 21.0505 196.099 20.9945 195.971 20.8825C195.859 20.7705 195.803 20.6265 195.803 20.4505V17.2825C195.803 17.1065 195.859 16.9625 195.971 16.8505C196.099 16.7225 196.251 16.6585 196.427 16.6585H199.595C199.771 16.6585 199.915 16.7225 200.027 16.8505C200.139 16.9625 200.195 17.1065 200.195 17.2825V20.4505C200.195 20.6105 200.139 20.7545 200.027 20.8825C199.915 20.9945 199.771 21.0505 199.595 21.0505H196.427Z"
                        fill="#2D2D2D"/>
                    <path
                        d="M211.074 21.2905C208.786 21.2905 206.986 20.7385 205.674 19.6345C204.378 18.5305 203.69 16.9145 203.61 14.7865C203.594 14.3545 203.586 13.6505 203.586 12.6745C203.586 11.6825 203.594 10.9625 203.61 10.5145C203.69 8.43448 204.386 6.83448 205.698 5.71448C207.026 4.57848 208.818 4.01048 211.074 4.01048C212.498 4.01048 213.77 4.24248 214.89 4.70648C216.026 5.17048 216.922 5.84248 217.578 6.72248C218.234 7.60248 218.578 8.64248 218.61 9.84248C218.61 9.98648 218.554 10.1065 218.442 10.2025C218.346 10.2985 218.226 10.3465 218.082 10.3465H214.674C214.45 10.3465 214.282 10.3065 214.17 10.2265C214.074 10.1305 213.986 9.96248 213.906 9.72248C213.682 8.93848 213.338 8.39448 212.874 8.09048C212.426 7.77048 211.826 7.61048 211.074 7.61048C209.266 7.61048 208.33 8.61848 208.266 10.6345C208.25 11.0665 208.242 11.7305 208.242 12.6265C208.242 13.5225 208.25 14.2025 208.266 14.6665C208.33 16.6825 209.266 17.6905 211.074 17.6905C211.81 17.6905 212.41 17.5305 212.874 17.2105C213.354 16.8905 213.698 16.3465 213.906 15.5785C213.97 15.3385 214.058 15.1785 214.17 15.0985C214.282 15.0025 214.45 14.9545 214.674 14.9545H218.082C218.226 14.9545 218.346 15.0025 218.442 15.0985C218.554 15.1945 218.61 15.3145 218.61 15.4585C218.578 16.6585 218.234 17.6985 217.578 18.5785C216.922 19.4585 216.026 20.1305 214.89 20.5945C213.77 21.0585 212.498 21.2905 211.074 21.2905Z"
                        fill="#2D2D2D"/>
                    <path
                        d="M229.219 21.2905C226.947 21.2905 225.155 20.7385 223.843 19.6345C222.531 18.5305 221.835 16.9065 221.755 14.7625C221.739 14.3145 221.731 13.6265 221.731 12.6985C221.731 11.7705 221.739 11.0745 221.755 10.6105C221.819 8.49848 222.515 6.87448 223.843 5.73848C225.187 4.58648 226.979 4.01048 229.219 4.01048C231.443 4.01048 233.219 4.58648 234.547 5.73848C235.891 6.87448 236.595 8.49848 236.659 10.6105C236.691 11.5385 236.707 12.2345 236.707 12.6985C236.707 13.1785 236.691 13.8665 236.659 14.7625C236.579 16.9065 235.883 18.5305 234.571 19.6345C233.275 20.7385 231.491 21.2905 229.219 21.2905ZM229.219 17.6905C230.051 17.6905 230.715 17.4425 231.211 16.9465C231.707 16.4345 231.971 15.6585 232.003 14.6185C232.035 13.6905 232.051 13.0265 232.051 12.6265C232.051 12.2265 232.035 11.5785 232.003 10.6825C231.971 9.64248 231.707 8.87448 231.211 8.37848C230.715 7.86648 230.051 7.61048 229.219 7.61048C228.371 7.61048 227.699 7.86648 227.203 8.37848C226.707 8.87448 226.443 9.64248 226.411 10.6825C226.395 11.1305 226.387 11.7785 226.387 12.6265C226.387 13.4905 226.395 14.1545 226.411 14.6185C226.443 15.6585 226.707 16.4345 227.203 16.9465C227.699 17.4425 228.371 17.6905 229.219 17.6905Z"
                        fill="#2D2D2D"/>
                    <path
                        d="M241.239 21.0505C241.063 21.0505 240.911 20.9945 240.783 20.8825C240.671 20.7705 240.615 20.6265 240.615 20.4505V4.87448C240.615 4.69848 240.671 4.55448 240.783 4.44248C240.911 4.31448 241.063 4.25048 241.239 4.25048H243.951C244.351 4.25048 244.639 4.42648 244.815 4.77848L248.943 12.1705L253.095 4.77848C253.271 4.42648 253.559 4.25048 253.959 4.25048H256.671C256.847 4.25048 256.991 4.31448 257.103 4.44248C257.231 4.55448 257.295 4.69848 257.295 4.87448V20.4505C257.295 20.6265 257.231 20.7705 257.103 20.8825C256.991 20.9945 256.847 21.0505 256.671 21.0505H253.623C253.463 21.0505 253.319 20.9945 253.191 20.8825C253.079 20.7545 253.023 20.6105 253.023 20.4505V11.7145L250.431 16.4665C250.223 16.8345 249.943 17.0185 249.591 17.0185H248.295C247.975 17.0185 247.695 16.8345 247.455 16.4665L244.887 11.7145V20.4505C244.887 20.6265 244.823 20.7705 244.695 20.8825C244.583 20.9945 244.439 21.0505 244.263 21.0505H241.239Z"
                        fill="#2D2D2D"/>
                    <path
                        d="M261.93 21.0505C261.754 21.0505 261.602 20.9945 261.474 20.8825C261.362 20.7705 261.306 20.6265 261.306 20.4505V17.2825C261.306 17.1065 261.362 16.9625 261.474 16.8505C261.602 16.7225 261.754 16.6585 261.93 16.6585H265.098C265.274 16.6585 265.418 16.7225 265.53 16.8505C265.642 16.9625 265.698 17.1065 265.698 17.2825V20.4505C265.698 20.6105 265.642 20.7545 265.53 20.8825C265.418 20.9945 265.274 21.0505 265.098 21.0505H261.93Z"
                        fill="#2D2D2D"/>
                    <path
                        d="M276.604 21.2905C274.332 21.2905 272.548 20.7385 271.252 19.6345C269.972 18.5305 269.332 16.8745 269.332 14.6665V4.87448C269.332 4.69848 269.388 4.55448 269.5 4.44248C269.612 4.31448 269.756 4.25048 269.932 4.25048H273.22C273.396 4.25048 273.54 4.31448 273.652 4.44248C273.78 4.55448 273.844 4.69848 273.844 4.87448V14.6185C273.844 15.6105 274.076 16.3545 274.54 16.8505C275.02 17.3465 275.7 17.5945 276.58 17.5945C277.46 17.5945 278.132 17.3465 278.596 16.8505C279.076 16.3385 279.316 15.5945 279.316 14.6185V4.87448C279.316 4.69848 279.372 4.55448 279.484 4.44248C279.612 4.31448 279.764 4.25048 279.94 4.25048H283.204C283.38 4.25048 283.524 4.31448 283.636 4.44248C283.764 4.55448 283.828 4.69848 283.828 4.87448V14.6665C283.828 16.8745 283.188 18.5305 281.908 19.6345C280.628 20.7385 278.86 21.2905 276.604 21.2905Z"
                        fill="#2D2D2D"/>
                    <path
                        d="M286.803 21.0505C286.675 21.0505 286.555 21.0025 286.443 20.9065C286.347 20.7945 286.299 20.6745 286.299 20.5465C286.299 20.4505 286.307 20.3785 286.323 20.3305L291.915 4.94648C292.075 4.48248 292.395 4.25048 292.875 4.25048H296.619C297.099 4.25048 297.419 4.48248 297.579 4.94648L303.171 20.3305C303.187 20.3785 303.195 20.4505 303.195 20.5465C303.195 20.6745 303.139 20.7945 303.027 20.9065C302.931 21.0025 302.819 21.0505 302.691 21.0505H299.571C299.187 21.0505 298.915 20.8745 298.755 20.5225L297.891 18.1945H291.603L290.739 20.5225C290.579 20.8745 290.307 21.0505 289.923 21.0505H286.803ZM292.611 14.5945H296.883L294.747 8.47448L292.611 14.5945Z"
                        fill="#2D2D2D"/>
                    <path
                        d="M59.2916 42.7328C58.3581 42.7328 57.5762 42.5573 56.9458 42.2064C56.3275 41.8433 55.8547 41.3351 55.5274 40.6817C55.2122 40.0161 55.0424 39.2477 55.0182 38.3764C55.0061 38.0134 55 37.6504 55 37.2874C55 36.9243 55.0061 36.5613 55.0182 36.1983C55.0182 35.0971 55.1091 34.1835 55.291 33.4574C55.4728 32.7314 55.7456 32.1384 56.1093 31.6786C56.4851 31.2067 56.9579 30.8195 57.5277 30.5169C58.0975 30.2144 58.7703 29.9542 59.5462 29.7364C60.3221 29.5065 61.2071 29.2645 62.2012 29.0104C62.3103 28.9862 62.4134 29.0043 62.5104 29.0648C62.6195 29.1253 62.6801 29.21 62.6922 29.3189L62.8377 30.0631C62.8619 30.1721 62.8438 30.2689 62.7831 30.3536C62.7346 30.4383 62.6558 30.4927 62.5467 30.5169C61.6375 30.7468 60.8434 30.9465 60.1645 31.1159C59.4856 31.2853 58.9158 31.485 58.4551 31.7149C57.9944 31.9327 57.6247 32.2171 57.3459 32.568C57.067 32.919 56.873 33.3848 56.7639 33.9657C56.6669 34.5465 56.6366 35.2907 56.673 36.1983L56.2729 36.0349C56.3336 35.5872 56.5215 35.1818 56.8367 34.8188C57.164 34.4437 57.5701 34.1411 58.0551 33.9112C58.54 33.6813 59.0552 33.5664 59.6008 33.5664C60.4373 33.5664 61.1404 33.7418 61.7102 34.0927C62.2921 34.4437 62.7346 34.9216 63.0377 35.5267C63.3529 36.1317 63.5287 36.8275 63.5651 37.6141C63.5893 38.0255 63.5893 38.3825 63.5651 38.685C63.5287 39.4716 63.3469 40.1734 63.0195 40.7906C62.6922 41.3956 62.2194 41.8736 61.6011 42.2245C60.9828 42.5634 60.213 42.7328 59.2916 42.7328ZM59.2916 41.3896C60.0554 41.3896 60.6616 41.1536 61.1101 40.6817C61.5587 40.2097 61.7951 39.52 61.8193 38.6124C61.8315 38.4914 61.8375 38.3522 61.8375 38.1949C61.8375 38.0376 61.8315 37.8743 61.8193 37.7049C61.7951 36.7852 61.5587 36.0894 61.1101 35.6174C60.6737 35.1455 60.1221 34.9095 59.4553 34.9095C58.6915 34.9095 58.0611 35.1455 57.5641 35.6174C57.067 36.0894 56.8003 36.7852 56.7639 37.7049C56.7518 37.8743 56.7458 38.0376 56.7458 38.1949C56.7458 38.3522 56.7518 38.4914 56.7639 38.6124C56.8003 39.52 57.0428 40.2097 57.4913 40.6817C57.9399 41.1536 58.54 41.3896 59.2916 41.3896Z"
                        fill="#2D2D2D" fill-opacity="0.6"/>
                    <path
                        d="M72.3373 42.5513C72.216 42.5513 72.113 42.5149 72.0281 42.4423C71.9554 42.3576 71.919 42.2548 71.919 42.1338V33.53C71.919 33.409 71.9554 33.3122 72.0281 33.2396C72.113 33.1549 72.216 33.1126 72.3373 33.1126H73.2101C73.3314 33.1126 73.4284 33.1549 73.5011 33.2396C73.586 33.3122 73.6284 33.409 73.6284 33.53V36.1983H75.5196C76.7562 36.1983 77.6594 36.4887 78.2292 37.0696C78.799 37.6504 79.0839 38.437 79.0839 39.4292C79.0839 40.4941 78.7687 41.2807 78.1382 41.7889C77.5078 42.2971 76.5622 42.5513 75.3014 42.5513H72.3373ZM73.6102 41.1899H75.356C76.0955 41.1899 76.635 41.0628 76.9744 40.8087C77.3139 40.5425 77.4836 40.0827 77.4836 39.4292C77.4836 38.8 77.3199 38.3341 76.9926 38.0316C76.6653 37.717 76.1197 37.5596 75.356 37.5596H73.6102V41.1899ZM80.7932 42.5513C80.672 42.5513 80.569 42.5149 80.4841 42.4423C80.4114 42.3576 80.375 42.2548 80.375 42.1338V33.53C80.375 33.409 80.4114 33.3122 80.4841 33.2396C80.569 33.1549 80.672 33.1126 80.7932 33.1126H81.6661C81.7873 33.1126 81.8843 33.1549 81.9571 33.2396C82.0419 33.3122 82.0844 33.409 82.0844 33.53V42.1338C82.0844 42.2548 82.0419 42.3576 81.9571 42.4423C81.8843 42.5149 81.7873 42.5513 81.6661 42.5513H80.7932Z"
                        fill="#2D2D2D" fill-opacity="0.6"/>
                    <path
                        d="M94.6745 42.7328C93.8138 42.7328 93.0682 42.5694 92.4378 42.2427C91.8195 41.9039 91.3406 41.4259 91.0012 40.8087C90.6617 40.1795 90.4799 39.4292 90.4556 38.558C90.4435 38.3764 90.4374 38.1344 90.4374 37.8319C90.4374 37.5294 90.4435 37.2874 90.4556 37.1059C90.4799 36.2346 90.6617 35.4904 91.0012 34.8732C91.3406 34.244 91.8195 33.766 92.4378 33.4393C93.0682 33.1005 93.8138 32.9311 94.6745 32.9311C95.3777 32.9311 95.9778 33.0279 96.4748 33.2215C96.984 33.4151 97.4023 33.6632 97.7296 33.9657C98.0569 34.2682 98.2994 34.5949 98.457 34.9459C98.6267 35.2968 98.7176 35.6296 98.7297 35.9442C98.7419 36.0652 98.7055 36.162 98.6206 36.2346C98.5358 36.3072 98.4327 36.3435 98.3115 36.3435H97.4386C97.3174 36.3435 97.2265 36.3193 97.1658 36.2709C97.1052 36.2104 97.0446 36.1136 96.984 35.9805C96.7658 35.3875 96.4688 34.9701 96.0929 34.728C95.7171 34.486 95.2504 34.365 94.6927 34.365C93.9653 34.365 93.3713 34.5889 92.9106 35.0366C92.462 35.4843 92.2196 36.2043 92.1832 37.1966C92.1711 37.6322 92.1711 38.0558 92.1832 38.4672C92.2196 39.4716 92.462 40.1976 92.9106 40.6454C93.3713 41.081 93.9653 41.2988 94.6927 41.2988C95.2504 41.2988 95.7171 41.1778 96.0929 40.9358C96.4688 40.6938 96.7658 40.2763 96.984 39.6833C97.0446 39.5502 97.1052 39.4595 97.1658 39.4111C97.2265 39.3506 97.3174 39.3203 97.4386 39.3203H98.3115C98.4327 39.3203 98.5358 39.3566 98.6206 39.4292C98.7055 39.5018 98.7419 39.5986 98.7297 39.7196C98.7176 39.9738 98.6631 40.2339 98.5661 40.5002C98.4691 40.7664 98.3115 41.0386 98.0933 41.317C97.8872 41.5832 97.6265 41.8252 97.3113 42.043C96.9961 42.2487 96.6142 42.4181 96.1657 42.5513C95.7292 42.6723 95.2322 42.7328 94.6745 42.7328Z"
                        fill="#2D2D2D" fill-opacity="0.6"/>
                    <path
                        d="M109.842 42.5513C109.721 42.5513 109.618 42.5149 109.533 42.4423C109.46 42.3576 109.424 42.2548 109.424 42.1338V34.5647H106.26C106.139 34.5647 106.036 34.5284 105.951 34.4558C105.878 34.3711 105.842 34.2682 105.842 34.1472V33.53C105.842 33.409 105.878 33.3122 105.951 33.2396C106.036 33.1549 106.139 33.1126 106.26 33.1126H114.261C114.383 33.1126 114.48 33.1549 114.552 33.2396C114.637 33.3122 114.68 33.409 114.68 33.53V34.1472C114.68 34.2682 114.637 34.3711 114.552 34.4558C114.48 34.5284 114.383 34.5647 114.261 34.5647H111.097V42.1338C111.097 42.2548 111.061 42.3576 110.988 42.4423C110.915 42.5149 110.812 42.5513 110.679 42.5513H109.842Z"
                        fill="#2D2D2D" fill-opacity="0.6"/>
                    <path
                        d="M122.755 46C122.633 46 122.53 45.9576 122.445 45.8729C122.373 45.8003 122.336 45.7035 122.336 45.5825V33.53C122.336 33.409 122.373 33.3122 122.445 33.2396C122.53 33.1549 122.633 33.1126 122.755 33.1126H123.591C123.712 33.1126 123.809 33.1549 123.882 33.2396C123.967 33.3122 124.009 33.409 124.009 33.53V34.3287C124.3 33.9294 124.688 33.5966 125.173 33.3304C125.658 33.0642 126.264 32.9311 126.992 32.9311C127.671 32.9311 128.246 33.046 128.719 33.2759C129.204 33.5058 129.598 33.8205 129.901 34.2198C130.216 34.6191 130.453 35.0729 130.61 35.5811C130.768 36.0894 130.853 36.6339 130.865 37.2148C130.877 37.4084 130.883 37.6141 130.883 37.8319C130.883 38.0497 130.877 38.2554 130.865 38.4491C130.853 39.0178 130.768 39.5623 130.61 40.0827C130.453 40.5909 130.216 41.0447 129.901 41.444C129.598 41.8312 129.204 42.1459 128.719 42.3879C128.246 42.6178 127.671 42.7328 126.992 42.7328C126.289 42.7328 125.694 42.6057 125.21 42.3516C124.737 42.0854 124.349 41.7586 124.046 41.3714V45.5825C124.046 45.7035 124.009 45.8003 123.937 45.8729C123.864 45.9576 123.761 46 123.627 46H122.755ZM126.61 41.2625C127.24 41.2625 127.731 41.1294 128.083 40.8632C128.446 40.5849 128.707 40.2279 128.865 39.7923C129.022 39.3445 129.113 38.8665 129.137 38.3583C129.15 38.0074 129.15 37.6564 129.137 37.3055C129.113 36.7973 129.022 36.3254 128.865 35.8897C128.707 35.442 128.446 35.085 128.083 34.8188C127.731 34.5405 127.24 34.4013 126.61 34.4013C126.016 34.4013 125.531 34.5405 125.155 34.8188C124.791 35.0971 124.519 35.4541 124.337 35.8897C124.167 36.3133 124.07 36.7489 124.046 37.1966C124.034 37.3902 124.028 37.6201 124.028 37.8864C124.028 38.1526 124.034 38.3886 124.046 38.5943C124.058 39.0178 124.155 39.4353 124.337 39.8467C124.531 40.2581 124.816 40.597 125.191 40.8632C125.567 41.1294 126.04 41.2625 126.61 41.2625Z"
                        fill="#2D2D2D" fill-opacity="0.6"/>
                    <path
                        d="M141.849 42.7328C141.243 42.7328 140.692 42.6118 140.195 42.3697C139.698 42.1277 139.297 41.801 138.994 41.3896C138.691 40.9781 138.54 40.5123 138.54 39.9919C138.54 39.157 138.879 38.4914 139.558 37.9953C140.237 37.4991 141.122 37.1724 142.213 37.0151L144.923 36.6339V36.1075C144.923 35.5267 144.753 35.0729 144.413 34.7462C144.086 34.4195 143.547 34.2561 142.795 34.2561C142.249 34.2561 141.807 34.365 141.468 34.5828C141.14 34.8006 140.91 35.079 140.776 35.4178C140.704 35.5993 140.576 35.6901 140.395 35.6901H139.576C139.443 35.6901 139.34 35.6538 139.267 35.5811C139.207 35.4964 139.176 35.3996 139.176 35.2907C139.176 35.1092 139.243 34.8853 139.376 34.6191C139.522 34.3529 139.74 34.0927 140.031 33.8386C140.322 33.5845 140.692 33.3727 141.14 33.2033C141.601 33.0218 142.159 32.9311 142.813 32.9311C143.541 32.9311 144.153 33.0279 144.65 33.2215C145.147 33.403 145.535 33.6511 145.814 33.9657C146.105 34.2803 146.311 34.6373 146.432 35.0366C146.565 35.4359 146.632 35.8413 146.632 36.2527V42.1338C146.632 42.2548 146.59 42.3576 146.505 42.4423C146.432 42.5149 146.335 42.5513 146.214 42.5513H145.377C145.244 42.5513 145.141 42.5149 145.068 42.4423C144.995 42.3576 144.959 42.2548 144.959 42.1338V41.3533C144.801 41.5711 144.589 41.7889 144.323 42.0067C144.056 42.2124 143.722 42.3879 143.322 42.5331C142.922 42.6662 142.431 42.7328 141.849 42.7328ZM142.231 41.3714C142.728 41.3714 143.183 41.2686 143.595 41.0628C144.007 40.845 144.329 40.5123 144.559 40.0645C144.801 39.6168 144.923 39.0541 144.923 38.3764V37.8682L142.813 38.1768C141.952 38.2978 141.304 38.5035 140.867 38.7939C140.431 39.0723 140.213 39.4292 140.213 39.8649C140.213 40.2037 140.31 40.4881 140.504 40.718C140.71 40.9358 140.964 41.0991 141.267 41.2081C141.583 41.317 141.904 41.3714 142.231 41.3714Z"
                        fill="#2D2D2D" fill-opacity="0.6"/>
                    <path
                        d="M161.2 42.5513C161.066 42.5513 160.963 42.5149 160.891 42.4423C160.818 42.3576 160.782 42.2548 160.782 42.1338V39.1751H158.69V39.0844C157.551 39.0844 156.702 38.806 156.144 38.2494C155.599 37.6806 155.326 36.9606 155.326 36.0894C155.326 35.0729 155.623 34.3227 156.217 33.8386C156.823 33.3546 157.733 33.1126 158.945 33.1126H162.073C162.194 33.1126 162.291 33.1549 162.364 33.2396C162.448 33.3122 162.491 33.409 162.491 33.53V42.1338C162.491 42.2548 162.448 42.3576 162.364 42.4423C162.291 42.5149 162.194 42.5513 162.073 42.5513H161.2ZM155.435 42.5513C155.326 42.5513 155.235 42.5149 155.162 42.4423C155.09 42.3697 155.053 42.285 155.053 42.1882C155.053 42.1398 155.059 42.0914 155.071 42.043C155.096 41.9825 155.132 41.922 155.181 41.8615L157.345 38.6669L159.09 38.7939L156.781 42.279C156.732 42.3395 156.666 42.4 156.581 42.4605C156.496 42.521 156.405 42.5513 156.308 42.5513H155.435ZM158.745 37.8138H160.8V34.4739H158.89C158.211 34.4739 157.708 34.5949 157.381 34.8369C157.066 35.0669 156.908 35.4843 156.908 36.0894C156.908 36.5855 157.054 36.997 157.345 37.3237C157.648 37.6504 158.114 37.8138 158.745 37.8138Z"
                        fill="#2D2D2D" fill-opacity="0.6"/>
                    <path
                        d="M181.235 44.5479C181.113 44.5479 181.01 44.5055 180.925 44.4208C180.853 44.3482 180.816 44.2514 180.816 44.1304V41.5166C180.816 41.3956 180.853 41.2988 180.925 41.2262C181.01 41.1415 181.113 41.0991 181.235 41.0991H181.326C181.653 41.087 181.932 40.9055 182.162 40.5546C182.392 40.1916 182.568 39.6289 182.689 38.8665C182.811 38.0921 182.871 37.0877 182.871 35.8534V33.53C182.871 33.409 182.908 33.3122 182.98 33.2396C183.065 33.1549 183.168 33.1126 183.29 33.1126H189.09C189.212 33.1126 189.309 33.1549 189.381 33.2396C189.466 33.3122 189.509 33.409 189.509 33.53V41.0628H190.363C190.497 41.0628 190.6 41.1052 190.673 41.1899C190.745 41.2625 190.782 41.3593 190.782 41.4803V44.1304C190.782 44.2514 190.745 44.3482 190.673 44.4208C190.6 44.5055 190.497 44.5479 190.363 44.5479H189.509C189.387 44.5479 189.284 44.5055 189.2 44.4208C189.127 44.3482 189.09 44.2514 189.09 44.1304V42.5513H182.508V44.1304C182.508 44.2514 182.465 44.3482 182.38 44.4208C182.308 44.5055 182.211 44.5479 182.089 44.5479H181.235ZM183.49 41.0991L187.818 41.0628V34.5647H184.526V36.0531C184.526 37.3358 184.435 38.3886 184.253 39.2114C184.071 40.0222 183.817 40.6514 183.49 41.0991Z"
                        fill="#2D2D2D" fill-opacity="0.6"/>
                    <path
                        d="M202.619 42.7328C201.698 42.7328 200.928 42.5573 200.31 42.2064C199.691 41.8554 199.218 41.3714 198.891 40.7543C198.564 40.125 198.382 39.4111 198.346 38.6124C198.333 38.4067 198.327 38.1465 198.327 37.8319C198.327 37.5052 198.333 37.245 198.346 37.0514C198.382 36.2406 198.564 35.5267 198.891 34.9095C199.231 34.2924 199.709 33.8084 200.328 33.4574C200.946 33.1065 201.71 32.9311 202.619 32.9311C203.528 32.9311 204.292 33.1065 204.91 33.4574C205.529 33.8084 206.001 34.2924 206.329 34.9095C206.668 35.5267 206.856 36.2406 206.892 37.0514C206.905 37.245 206.911 37.5052 206.911 37.8319C206.911 38.1465 206.905 38.4067 206.892 38.6124C206.856 39.4111 206.674 40.125 206.347 40.7543C206.02 41.3714 205.547 41.8554 204.928 42.2064C204.31 42.5573 203.54 42.7328 202.619 42.7328ZM202.619 41.3351C203.371 41.3351 203.971 41.0991 204.419 40.6272C204.868 40.1432 205.11 39.4413 205.147 38.5217C205.159 38.3401 205.165 38.1102 205.165 37.8319C205.165 37.5536 205.159 37.3237 205.147 37.1422C205.11 36.2225 204.868 35.5267 204.419 35.0548C203.971 34.5707 203.371 34.3287 202.619 34.3287C201.867 34.3287 201.261 34.5707 200.801 35.0548C200.352 35.5267 200.116 36.2225 200.091 37.1422C200.079 37.3237 200.073 37.5536 200.073 37.8319C200.073 38.1102 200.079 38.3401 200.091 38.5217C200.116 39.4413 200.352 40.1432 200.801 40.6272C201.261 41.0991 201.867 41.3351 202.619 41.3351Z"
                        fill="#2D2D2D" fill-opacity="0.6"/>
                    <path
                        d="M219.068 42.7328C218.207 42.7328 217.462 42.5694 216.831 42.2427C216.213 41.9039 215.734 41.4259 215.395 40.8087C215.055 40.1795 214.874 39.4292 214.849 38.558C214.837 38.3764 214.831 38.1344 214.831 37.8319C214.831 37.5294 214.837 37.2874 214.849 37.1059C214.874 36.2346 215.055 35.4904 215.395 34.8732C215.734 34.244 216.213 33.766 216.831 33.4393C217.462 33.1005 218.207 32.9311 219.068 32.9311C219.771 32.9311 220.371 33.0279 220.868 33.2215C221.378 33.4151 221.796 33.6632 222.123 33.9657C222.451 34.2682 222.693 34.5949 222.851 34.9459C223.02 35.2968 223.111 35.6296 223.123 35.9442C223.136 36.0652 223.099 36.162 223.014 36.2346C222.929 36.3072 222.826 36.3435 222.705 36.3435H221.832C221.711 36.3435 221.62 36.3193 221.56 36.2709C221.499 36.2104 221.438 36.1136 221.378 35.9805C221.159 35.3875 220.862 34.9701 220.487 34.728C220.111 34.486 219.644 34.365 219.086 34.365C218.359 34.365 217.765 34.5889 217.304 35.0366C216.856 35.4843 216.613 36.2043 216.577 37.1966C216.565 37.6322 216.565 38.0558 216.577 38.4672C216.613 39.4716 216.856 40.1976 217.304 40.6454C217.765 41.081 218.359 41.2988 219.086 41.2988C219.644 41.2988 220.111 41.1778 220.487 40.9358C220.862 40.6938 221.159 40.2763 221.378 39.6833C221.438 39.5502 221.499 39.4595 221.56 39.4111C221.62 39.3506 221.711 39.3203 221.832 39.3203H222.705C222.826 39.3203 222.929 39.3566 223.014 39.4292C223.099 39.5018 223.136 39.5986 223.123 39.7196C223.111 39.9738 223.057 40.2339 222.96 40.5002C222.863 40.7664 222.705 41.0386 222.487 41.317C222.281 41.5832 222.02 41.8252 221.705 42.043C221.39 42.2487 221.008 42.4181 220.559 42.5513C220.123 42.6723 219.626 42.7328 219.068 42.7328Z"
                        fill="#2D2D2D" fill-opacity="0.6"/>
                    <path
                        d="M234.236 42.5513C234.115 42.5513 234.012 42.5149 233.927 42.4423C233.854 42.3576 233.818 42.2548 233.818 42.1338V34.5647H230.654C230.532 34.5647 230.429 34.5284 230.344 34.4558C230.272 34.3711 230.235 34.2682 230.235 34.1472V33.53C230.235 33.409 230.272 33.3122 230.344 33.2396C230.429 33.1549 230.532 33.1126 230.654 33.1126H238.655C238.776 33.1126 238.873 33.1549 238.946 33.2396C239.031 33.3122 239.073 33.409 239.073 33.53V34.1472C239.073 34.2682 239.031 34.3711 238.946 34.4558C238.873 34.5284 238.776 34.5647 238.655 34.5647H235.491V42.1338C235.491 42.2548 235.454 42.3576 235.382 42.4423C235.309 42.5149 235.206 42.5513 235.073 42.5513H234.236Z"
                        fill="#2D2D2D" fill-opacity="0.6"/>
                    <path
                        d="M249.349 42.7328C248.742 42.7328 248.191 42.6118 247.694 42.3697C247.197 42.1277 246.797 41.801 246.494 41.3896C246.191 40.9781 246.039 40.5123 246.039 39.9919C246.039 39.157 246.378 38.4914 247.057 37.9953C247.736 37.4991 248.621 37.1724 249.712 37.0151L252.422 36.6339V36.1075C252.422 35.5267 252.252 35.0729 251.913 34.7462C251.585 34.4195 251.046 34.2561 250.294 34.2561C249.749 34.2561 249.306 34.365 248.967 34.5828C248.639 34.8006 248.409 35.079 248.276 35.4178C248.203 35.5993 248.076 35.6901 247.894 35.6901H247.076C246.942 35.6901 246.839 35.6538 246.766 35.5811C246.706 35.4964 246.675 35.3996 246.675 35.2907C246.675 35.1092 246.742 34.8853 246.875 34.6191C247.021 34.3529 247.239 34.0927 247.53 33.8386C247.821 33.5845 248.191 33.3727 248.639 33.2033C249.1 33.0218 249.658 32.9311 250.312 32.9311C251.04 32.9311 251.652 33.0279 252.149 33.2215C252.646 33.403 253.034 33.6511 253.313 33.9657C253.604 34.2803 253.81 34.6373 253.931 35.0366C254.065 35.4359 254.131 35.8413 254.131 36.2527V42.1338C254.131 42.2548 254.089 42.3576 254.004 42.4423C253.931 42.5149 253.834 42.5513 253.713 42.5513H252.877C252.743 42.5513 252.64 42.5149 252.567 42.4423C252.495 42.3576 252.458 42.2548 252.458 42.1338V41.3533C252.301 41.5711 252.088 41.7889 251.822 42.0067C251.555 42.2124 251.222 42.3879 250.822 42.5331C250.422 42.6662 249.931 42.7328 249.349 42.7328ZM249.731 41.3714C250.228 41.3714 250.682 41.2686 251.094 41.0628C251.507 40.845 251.828 40.5123 252.058 40.0645C252.301 39.6168 252.422 39.0541 252.422 38.3764V37.8682L250.312 38.1768C249.452 38.2978 248.803 38.5035 248.367 38.7939C247.93 39.0723 247.712 39.4292 247.712 39.8649C247.712 40.2037 247.809 40.4881 248.003 40.718C248.209 40.9358 248.464 41.0991 248.767 41.2081C249.082 41.317 249.403 41.3714 249.731 41.3714Z"
                        fill="#2D2D2D" fill-opacity="0.6"/>
                    <path
                        d="M263.225 42.5513C263.104 42.5513 263.001 42.5149 262.916 42.4423C262.843 42.3576 262.807 42.2548 262.807 42.1338V33.53C262.807 33.409 262.843 33.3122 262.916 33.2396C263.001 33.1549 263.104 33.1126 263.225 33.1126H267.008C268.147 33.1126 269.002 33.3425 269.572 33.8023C270.154 34.2622 270.445 34.8793 270.445 35.6538C270.445 36.1983 270.342 36.6097 270.136 36.888C269.93 37.1664 269.639 37.4023 269.263 37.5959C269.723 37.7896 270.069 38.1042 270.299 38.5398C270.542 38.9633 270.663 39.405 270.663 39.8649C270.663 40.7361 270.354 41.4017 269.736 41.8615C269.117 42.3213 268.257 42.5513 267.153 42.5513H263.225ZM264.48 41.2262H267.008C267.59 41.2262 268.056 41.1173 268.408 40.8995C268.772 40.6696 268.954 40.3247 268.954 39.8649C268.954 39.3808 268.79 39.0299 268.463 38.8121C268.135 38.5822 267.65 38.4672 267.008 38.4672H264.48V41.2262ZM264.48 37.124H266.899C267.481 37.124 267.941 36.9969 268.281 36.7428C268.632 36.4887 268.808 36.1317 268.808 35.6719C268.808 35.2 268.632 34.8793 268.281 34.7099C267.941 34.5284 267.481 34.4376 266.899 34.4376H264.48V37.124Z"
                        fill="#2D2D2D" fill-opacity="0.6"/>
                    <path
                        d="M279.48 42.5513C279.359 42.5513 279.256 42.5149 279.171 42.4423C279.099 42.3576 279.062 42.2548 279.062 42.1338V33.53C279.062 33.409 279.099 33.3122 279.171 33.2396C279.256 33.1549 279.359 33.1126 279.48 33.1126H280.335C280.456 33.1126 280.553 33.1549 280.626 33.2396C280.711 33.3122 280.753 33.409 280.753 33.53V37.0151H282.408L284.863 33.3848C284.924 33.3001 284.991 33.2336 285.063 33.1852C285.136 33.1368 285.233 33.1126 285.354 33.1126H286.3C286.409 33.1126 286.5 33.1368 286.573 33.1852C286.645 33.2336 286.682 33.3062 286.682 33.403C286.682 33.4272 286.67 33.4635 286.645 33.5119C286.633 33.5482 286.615 33.5845 286.591 33.6208L283.863 37.6322L286.954 42.0249C287.015 42.0975 287.045 42.1761 287.045 42.2608C287.045 42.3576 287.009 42.4302 286.936 42.4786C286.876 42.527 286.791 42.5513 286.682 42.5513H285.572C285.463 42.5513 285.372 42.527 285.3 42.4786C285.227 42.4302 285.16 42.3637 285.1 42.279L282.426 38.4854H280.753V42.1338C280.753 42.2548 280.711 42.3576 280.626 42.4423C280.553 42.5149 280.456 42.5513 280.335 42.5513H279.48Z"
                        fill="#2D2D2D" fill-opacity="0.6"/>
                    <path
                        d="M298.217 42.7328C297.611 42.7328 297.06 42.6118 296.563 42.3697C296.066 42.1277 295.665 41.801 295.362 41.3896C295.059 40.9781 294.908 40.5123 294.908 39.9919C294.908 39.157 295.247 38.4914 295.926 37.9953C296.605 37.4991 297.49 37.1724 298.581 37.0151L301.291 36.6339V36.1075C301.291 35.5267 301.121 35.0729 300.781 34.7462C300.454 34.4195 299.915 34.2561 299.163 34.2561C298.617 34.2561 298.175 34.365 297.835 34.5828C297.508 34.8006 297.278 35.079 297.144 35.4178C297.072 35.5993 296.944 35.6901 296.763 35.6901H295.944C295.811 35.6901 295.708 35.6538 295.635 35.5811C295.575 35.4964 295.544 35.3996 295.544 35.2907C295.544 35.1092 295.611 34.8853 295.744 34.6191C295.89 34.3529 296.108 34.0927 296.399 33.8386C296.69 33.5845 297.06 33.3727 297.508 33.2033C297.969 33.0218 298.527 32.9311 299.181 32.9311C299.909 32.9311 300.521 33.0279 301.018 33.2215C301.515 33.403 301.903 33.6511 302.182 33.9657C302.473 34.2803 302.679 34.6373 302.8 35.0366C302.933 35.4359 303 35.8413 303 36.2527V42.1338C303 42.2548 302.958 42.3576 302.873 42.4423C302.8 42.5149 302.703 42.5513 302.582 42.5513H301.745C301.612 42.5513 301.509 42.5149 301.436 42.4423C301.363 42.3576 301.327 42.2548 301.327 42.1338V41.3533C301.169 41.5711 300.957 41.7889 300.691 42.0067C300.424 42.2124 300.09 42.3879 299.69 42.5331C299.29 42.6662 298.799 42.7328 298.217 42.7328ZM298.599 41.3714C299.096 41.3714 299.551 41.2686 299.963 41.0628C300.375 40.845 300.697 40.5123 300.927 40.0645C301.169 39.6168 301.291 39.0541 301.291 38.3764V37.8682L299.181 38.1768C298.32 38.2978 297.672 38.5035 297.235 38.7939C296.799 39.0723 296.581 39.4292 296.581 39.8649C296.581 40.2037 296.678 40.4881 296.872 40.718C297.078 40.9358 297.332 41.0991 297.635 41.2081C297.951 41.317 298.272 41.3714 298.599 41.3714Z"
                        fill="#2D2D2D" fill-opacity="0.6"/>
            </svg>
